<?xml version="1.0" encoding="utf-8"?>
<!-- Generator: Adobe Illustrator 16.0.0, SVG Export Plug-In . SVG Version: 6.00 Build 0)  -->
<!DOCTYPE svg PUBLIC "-//W3C//DTD SVG 1.1//EN" "http://www.w3.org/Graphics/SVG/1.1/DTD/svg11.dtd">
<svg version="1.1" id="Layer_1" xmlns="http://www.w3.org/2000/svg" xmlns:xlink="http://www.w3.org/1999/xlink" x="0px" y="0px"
	 width="501.335px" height="511.993px" viewBox="0 0 501.335 511.993" enable-background="new 0 0 501.335 511.993"
	 xml:space="preserve">
<g>
	<defs>
		<rect id="SVGID_1_" width="501.335" height="511.993"/>
	</defs>
	<clipPath id="SVGID_2_">
		<use xlink:href="#SVGID_1_"  overflow="visible"/>
	</clipPath>
	<path clip-path="url(#SVGID_2_)" d="M309.338,138.662c0-14.258-7.469-33.726-17.016-44.32L224.871,19.39
		C214.918,8.335,196.199,0,181.34,0h-42.67c-14.875,0-33.578,8.335-43.531,19.39L27.687,94.342
		c-9.546,10.594-17.015,30.062-17.015,44.32C4.781,138.662,0,143.443,0,149.333V362.65c0,5.906,4.781,10.688,10.672,10.688
		c0,14.25,7.469,33.72,17.015,44.312l67.452,74.953c9.953,11.047,28.656,19.391,43.531,19.391h42.67
		c14.859,0,33.578-8.344,43.531-19.391l67.451-74.953c9.547-10.592,17.016-30.062,17.016-44.312c5.891,0,10.656-4.78,10.656-10.688
		V149.333C319.994,143.443,315.229,138.662,309.338,138.662 M31.999,266.66c2.734,0,5.469-1.039,7.547-3.125
		c4.172-4.164,4.172-10.914,0-15.078c-2.078-2.086-4.812-3.125-7.547-3.125v-10.671h21.344v42.679H31.999V266.66z M74.67,319.994
		h170.67v21.344H74.67V319.994z M74.67,213.332h170.67v85.318H74.67V213.332z M245.34,191.997H74.67v-21.335h170.67V191.997z
		 M75.248,149.333c1.562-8.546,6.078-18.937,10.953-24.351l43.797-48.655c5.812-6.453,18.999-12.328,27.671-12.328h4.672
		c8.672,0,21.858,5.875,27.671,12.328l43.797,48.655c4.875,5.414,9.391,15.805,10.953,24.351H75.248z M244.762,362.65
		c-1.562,8.562-6.078,18.938-10.953,24.358l-43.797,48.654c-5.812,6.453-18.999,12.328-27.671,12.328h-4.672
		c-8.672,0-21.874-5.875-27.671-12.328l-43.797-48.654c-4.875-5.422-9.391-15.797-10.953-24.358H244.762z M266.667,234.661h21.328
		v10.671c-2.719,0-5.453,1.039-7.531,3.125c-4.172,4.164-4.172,10.914,0,15.078c2.078,2.086,4.812,3.125,7.531,3.125v10.68h-21.328
		V234.661z M43.53,108.608l67.468-74.952c5.797-6.445,19-12.32,27.672-12.32h42.67c8.672,0,21.859,5.875,27.672,12.32l67.452,74.952
		c6.047,6.711,11.531,21.031,11.531,30.054v74.67h-21.328v-10.671v-42.664v-4.961c0-14.257-7.468-33.726-17.015-44.327
		l-43.781-48.656c-9.953-11.054-28.672-19.39-43.53-19.39h-4.672c-14.859,0-33.577,8.336-43.53,19.39l-43.797,48.656
		c-9.531,10.601-16.999,30.07-16.999,44.327v4.961v42.664v10.671H31.999v-74.67C31.999,129.639,37.499,115.319,43.53,108.608
		 M276.464,403.385l-67.452,74.951c-5.812,6.438-19,12.312-27.672,12.312h-42.67c-8.672,0-21.875-5.875-27.672-12.312L43.53,403.385
		c-6.031-6.702-11.531-21.03-11.531-30.047V298.65h21.344v10.688v42.656v4.969c0,14.25,7.468,33.72,16.999,44.312l43.797,48.653
		c9.953,11.062,28.655,19.406,43.53,19.406h4.672c14.858,0,33.577-8.344,43.53-19.406l43.781-48.653
		c9.547-10.593,17.015-30.062,17.015-44.312v-4.969v-42.656V298.65h21.328v74.688C287.995,382.354,282.511,396.683,276.464,403.385"
		/>
	<path clip-path="url(#SVGID_2_)" d="M415.992,10.664C415.992,4.773,411.226,0,405.337,0h-63.999
		c-5.891,0-10.672,4.773-10.672,10.664v95.999c0,1.359,0.266,2.703,0.766,3.961l21.328,53.335c1.625,4.047,5.547,6.703,9.906,6.703
		v330.674c0,5.875,4.781,10.656,10.672,10.656c5.89,0,10.655-4.781,10.655-10.656V170.662c4.375,0,8.281-2.656,9.906-6.703
		l21.343-53.335c0.5-1.258,0.75-2.602,0.75-3.961V10.664z M394.665,104.608l-17.89,44.726h-6.892l-17.891-44.726V21.336h42.671
		L394.665,104.608L394.665,104.608z"/>
	<path clip-path="url(#SVGID_2_)" d="M500.569,401.369l-21.327-53.344c-1.625-4.031-5.547-6.688-9.906-6.688V10.664
		C469.336,4.773,464.555,0,458.664,0s-10.672,4.773-10.672,10.664v330.674c-4.359,0-8.281,2.656-9.906,6.688l-21.328,53.344
		c-0.5,1.25-0.766,2.594-0.766,3.969v95.998c0,5.875,4.781,10.656,10.672,10.656h64c5.89,0,10.671-4.781,10.671-10.656v-95.998
		C501.335,403.963,501.069,402.619,500.569,401.369 M479.992,490.648h-42.656v-83.265l17.891-44.733h6.892l17.875,44.733
		L479.992,490.648L479.992,490.648z"/>
</g>
</svg>
