<?xml version="1.0" encoding="utf-8"?>
<!-- Generator: Adobe Illustrator 16.0.0, SVG Export Plug-In . SVG Version: 6.00 Build 0)  -->
<!DOCTYPE svg PUBLIC "-//W3C//DTD SVG 1.1//EN" "http://www.w3.org/Graphics/SVG/1.1/DTD/svg11.dtd">
<svg version="1.1" id="Layer_1" xmlns="http://www.w3.org/2000/svg" xmlns:xlink="http://www.w3.org/1999/xlink" x="0px" y="0px"
	 width="115.994px" height="64.497px" viewBox="0 0 115.994 64.497" enable-background="new 0 0 115.994 64.497"
	 xml:space="preserve">
<g>
	<defs>
		<rect id="SVGID_1_" width="115.994" height="64.497"/>
	</defs>
	<clipPath id="SVGID_2_">
		<use xlink:href="#SVGID_1_"  overflow="visible"/>
	</clipPath>
	<path clip-path="url(#SVGID_2_)" fill="#FFFFFF" d="M93.315,64.497c-12.508,0-22.682-10.174-22.682-22.679
		c0-8.417,4.587-16.045,12.001-20.007l-3.754-8.82l-26.912,33.68c-0.379,0.466-0.918,0.72-1.494,0.72
		c-0.071,0-0.143-0.004-0.214-0.013l-5.439-0.625c-2.287,10.308-11.535,17.744-22.141,17.744C10.174,64.497,0,54.323,0,41.818
		c0-12.509,10.174-22.683,22.681-22.683c5.402,0,10.612,1.926,14.717,5.431l3.267-3.325L35.857,6.309h-3.088
		c-1.114,0-2.017-0.905-2.017-2.015c0-1.114,0.905-2.018,2.017-2.018h11.827c1.113,0,2.016,0.905,2.016,2.018
		c0,1.112-0.905,2.015-2.016,2.015h-4.721l4.168,12.949L76.41,7.189l-1.996-4.688l5.154-2.008C79.859,0.201,80.369,0,80.899,0h9.337
		c1.16,0,2.102,0.941,2.102,2.099c0,1.16-0.941,2.101-2.102,2.101h-9.337c-0.319,0-0.633-0.075-0.923-0.218l-1.062,0.414
		l6.828,16.04c2.433-0.862,4.979-1.299,7.571-1.299c12.505,0,22.68,10.174,22.68,22.681
		C115.994,54.326,105.819,64.497,93.315,64.497 M84.39,25.94c-5.747,3.239-9.297,9.28-9.297,15.879
		c0,10.049,8.175,18.224,18.223,18.224s18.225-8.175,18.225-18.224c0-10.045-8.177-18.222-18.225-18.222
		c-1.995,0-3.947,0.321-5.822,0.954L94.95,42.07c0.364,0.858-0.037,1.862-0.899,2.229c-0.217,0.093-0.438,0.139-0.667,0.139
		c-0.683,0-1.299-0.408-1.564-1.038L84.39,25.94z M22.682,23.596c-10.048,0-18.223,8.175-18.223,18.223
		c0,10.047,8.175,18.224,18.223,18.224c8.31,0,15.666-5.778,17.675-13.806l-17.895-2.063c-0.721-0.083-1.343-0.576-1.584-1.259
		c-0.24-0.683-0.069-1.459,0.44-1.976l12.941-13.175C30.998,25.073,26.904,23.596,22.682,23.596 M47.747,43.239L41.988,25.35
		l-1.901,1.936c3.404,4.074,5.273,9.217,5.273,14.532c0,0.385-0.012,0.767-0.032,1.146L47.747,43.239z M40.891,42.452
		c0.007-0.213,0.013-0.42,0.013-0.633c0-4.107-1.404-8.114-3.963-11.329L26.785,40.826L40.891,42.452z M51.205,41.506L74.92,11.827
		L45.215,22.901L51.205,41.506z"/>
</g>
</svg>
