<?xml version="1.0" encoding="utf-8"?>
<!-- Generator: Adobe Illustrator 16.0.0, SVG Export Plug-In . SVG Version: 6.00 Build 0)  -->
<!DOCTYPE svg PUBLIC "-//W3C//DTD SVG 1.1//EN" "http://www.w3.org/Graphics/SVG/1.1/DTD/svg11.dtd">
<svg version="1.1" id="Layer_1" xmlns="http://www.w3.org/2000/svg" xmlns:xlink="http://www.w3.org/1999/xlink" x="0px" y="0px"
	 width="507.901px" height="507.6px" viewBox="0 0 507.901 507.6" enable-background="new 0 0 507.901 507.6" xml:space="preserve">
<g>
	<defs>
		<rect id="SVGID_1_" width="507.901" height="507.6"/>
	</defs>
	<clipPath id="SVGID_2_">
		<use xlink:href="#SVGID_1_"  overflow="visible"/>
	</clipPath>
	<path clip-path="url(#SVGID_2_)" fill="#FFFDFD" d="M493.3,85.1L493.3,85.1l-75.2-65.7C401.6,5,376.8,5,360.3,19.4l-20.7,18.1
		C315.4,27.3,285.7,21.3,253.2,21.3c-23.3,0-45,3.2-64.5,8.7c-20.9-19.3-47.9-30-76.6-30C82.1,0,54,11.5,32.8,32.4
		C11.6,53.2,0,81,0,110.7c0,35,16.9,68.3,45.4,89c0.5,0.4,1.1,0.8,1.6,1.1v42.1c0,2.4,1,4.6,2.9,6.1l14.8,12.3l-16.1,21.5
		c-2.1,2.8-2.1,6.7,0,9.5L65.7,315l-17.2,23.8c-2.1,2.899-2,6.8,0.2,9.6l17,21.4l-17,22.8c-2.1,2.8-2.1,6.7,0,9.5l16,21.1
		l-14.8,12.2c-1.8,1.5-2.9,3.8-2.9,6.101V456.9c0,2.5,1.2,4.9,3.2,6.4l57.1,42.7c0.3,0.199,0.7,0.3,1,0.5c0.3,0.199,0.7,0.399,1,0.5
		c0.8,0.3,1.6,0.399,2.4,0.5c0.1,0,0.2,0.1,0.4,0.1c0.1,0,0.3-0.1,0.4-0.1c0.8,0,1.6-0.2,2.4-0.5c0.4-0.101,0.7-0.4,1.1-0.601
		c0.3-0.2,0.7-0.3,1-0.5L164.7,469c1.9-1.5,3.1-3.801,3.1-6.301v-256c3.8-2.1,7.5-4.4,10.9-7c3.5-2.6,6.9-5.3,10.1-8.3
		c19.4,5.5,41.1,8.7,64.4,8.7c5.8,0,11.5-0.2,17.1-0.6v204.3C270.3,428.2,290.4,448,315,448h148.2c24.7,0,44.7-19.9,44.7-44.2V117.5
		C508,105.1,502.6,93.3,493.3,85.1 M104.2,483.9L63,453.1v-7.7l17.8-14.7c3.3-2.699,3.8-7.5,1.3-10.899l-17-22.4l16.9-23
		c2.1-2.899,2.1-6.8-0.1-9.6l-17-21.601L82,319.5c2-2.801,2-6.7-0.1-9.4l-17.1-22.6L82,264.8c2.5-3.4,2-8.2-1.3-10.9L63,239.1v-28.9
		c1.9,0.9,3.8,1.6,5.7,2.4c1.3,0.5,2.6,1.1,3.9,1.6c1.8,0.7,3.6,1.2,5.4,1.7c8.4,2.7,17,4.3,25.7,4.9c0.2,0,0.3,0,0.5,0.1V483.9z
		 M151.9,458.9L120,483.6V221.1h0.2c0.4,0,0.8-0.1,1.2-0.2c3.3-0.3,6.6-0.7,9.8-1.2c0.9-0.1,1.8-0.3,2.7-0.5c2.5-0.5,5-1,7.5-1.7
		c0.7-0.2,1.5-0.4,2.2-0.6c2.8-0.8,5.6-1.7,8.3-2.7V458.9z M184.3,173.2c-18.2-6.3-33.6-14.8-44.7-25c0.1-0.1,0.2-0.2,0.4-0.2
		c12-8.7,19.1-22.7,19-37.4c0-12.3-4.8-23.9-13.6-32.7c-8.9-8.8-20.6-13.7-33.2-13.7h-0.1C99.5,64.3,87.7,69,78.8,77.9
		c-8.8,8.7-13.6,20.4-13.6,32.7c0,14.7,7.1,28.7,19.1,37.4c2.1,1.5,4.1,2.8,6.2,3.8c6.7,3.4,14,5.2,21.2,5.2h0.6
		c3.9,0,7.8-0.5,11.5-1.5c11.5,12.2,27.6,22.4,47,30c-0.5,0.4-1,0.9-1.6,1.3c-3.9,2.9-8.1,5.5-12.3,7.7c-0.3,0.1-0.5,0.2-0.8,0.3
		c-11.2,5.7-23.6,9.2-36.7,10.1c-0.3,0-0.7,0.1-1,0.1l-2,0.1c-1.4,0.1-2.7,0.2-4.2,0.2H112h-0.2c-0.9,0-1.8,0-3-0.1
		c-14.6-0.4-28.5-4-41.5-10.7c-2.5-1.3-5.2-2.8-8.2-4.8c-1.5-1-2.9-1.9-4.3-3l-0.1-0.1c-24.4-17.7-39-46.2-38.9-76.2
		c0-25.4,10-49.2,28.1-67.1c18.3-17.6,42.5-27.5,68.2-27.5c25.7,0,49.9,9.9,68.1,27.8c18.2,17.9,28.2,41.7,28.2,67.1
		C208.4,133.9,199.6,156.1,184.3,173.2 M130.7,135.2c-0.5,0.4-1.2,0.7-1.8,1.1c-5.6-8-8.8-16.6-8.8-25.6s3.2-17.6,8.9-25.6
		c1.9,1.2,3.7,2.6,5.3,4.2c5.8,5.7,8.9,13.4,8.9,21.5C143.2,120.4,138.6,129.4,130.7,135.2 M112.9,141.2H112
		c-4.8-0.2-9.8-1.2-14.3-3.5c-1.5-0.7-2.8-1.6-4.1-2.5c-8-5.8-12.5-14.7-12.5-24.5c0-8.1,3.2-15.7,8.9-21.4c5.9-5.8,13.7-9.1,22-9.1
		h0.1c0.2,0,0.5,0.1,0.7,0.1c-5.6,9.5-8.7,19.7-8.7,30.5C104.2,121.5,107.3,131.7,112.9,141.2 M270.3,117.5v66.2
		c-5.6,0.4-11.3,0.7-17.1,0.7c-18.5,0-36.1-2.4-52.3-6.3c14.8-19.1,23.4-42.7,23.4-67.3c0-24.7-8.2-48.1-23.2-67.3
		c16.1-3.9,33.7-6.3,52.1-6.3c26.6,0,51.5,4.6,72.6,12.4l-40.7,35.6C275.7,93.3,270.3,105.1,270.3,117.5 M492.1,403.9
		c0,15.601-12.899,28.4-28.899,28.4H315c-15.9,0-28.9-12.7-28.9-28.4V198c39.801-5.2,73.101-19.7,93.7-39.6c3,0.7,6.101,1.1,9.3,1.1
		c23.601,0,42.801-19,42.801-42.4S412.7,74.7,389.1,74.7c-23.6,0-42.8,19-42.8,42.4c0,14,6.9,26.3,17.5,34
		c-18.1,14.9-45.8,26.1-77.6,30.8v-64.4c0-7.8,3.399-15.2,9.3-20.4l75.2-65.7c5.3-4.6,11.899-6.9,18.5-6.9c6.6,0,13.2,2.3,18.5,6.9
		l75.2,65.7c5.899,5.2,9.3,12.6,9.3,20.4v286.4H492.1z M394.3,102.8c-4.399,0-7.899,3.6-7.899,7.9c0,10.2-4,20-11.2,28.9
		c-7.8-4.7-13-13-13-22.6c0-14.6,12.1-26.5,27-26.5c14.899,0,27,11.9,27,26.5c0,13.5-10.4,24.6-23.8,26.2c6.399-10.1,10-21,10-32.6
		C402.3,106.3,398.7,102.8,394.3,102.8"/>
</g>
</svg>
