<?xml version="1.0" encoding="utf-8"?>
<!-- Generator: Adobe Illustrator 16.0.0, SVG Export Plug-In . SVG Version: 6.00 Build 0)  -->
<!DOCTYPE svg PUBLIC "-//W3C//DTD SVG 1.1//EN" "http://www.w3.org/Graphics/SVG/1.1/DTD/svg11.dtd">
<svg version="1.1" id="Layer_1" xmlns="http://www.w3.org/2000/svg" xmlns:xlink="http://www.w3.org/1999/xlink" x="0px" y="0px"
	 width="89px" height="75.62px" viewBox="0 0 89 75.62" enable-background="new 0 0 89 75.62" xml:space="preserve">
<g>
	<defs>
		<rect id="SVGID_1_" width="89" height="75.62"/>
	</defs>
	<clipPath id="SVGID_2_">
		<use xlink:href="#SVGID_1_"  overflow="visible"/>
	</clipPath>
	<path clip-path="url(#SVGID_2_)" fill="#FFFFFF" d="M87,71.62h-3.943c-0.043-0.154-0.098-0.307-0.18-0.452L46.794,6.918
		l2.212-3.938c0.541-0.963,0.198-2.183-0.765-2.723c-0.964-0.542-2.184-0.199-2.725,0.764L44.5,2.833l-1.018-1.812
		c-0.541-0.962-1.759-1.306-2.724-0.764c-0.963,0.541-1.306,1.76-0.765,2.723l2.212,3.938L6.122,71.168
		c-0.082,0.146-0.137,0.298-0.18,0.452H2c-1.104,0-2,0.896-2,2s0.896,2,2,2h85c1.104,0,2-0.896,2-2S88.104,71.62,87,71.62
		 M34.419,35.507l-8.506,15.004c-0.916,1.611-2.851,2.277-4.538,1.667L33.438,30.7C34.892,31.822,35.351,33.865,34.419,35.507
		 M20.385,53.942c0.729,0.312,1.494,0.469,2.253,0.469c2.005,0,3.956-1.048,5.015-2.912l8.507-15.006
		c1.478-2.605,0.689-5.887-1.729-7.561L44.5,11.003L78.542,71.62H59.553c0.001-0.021,0.009-0.04,0.009-0.061V58.349
		c0-1.146-0.934-2.079-2.079-2.079h-12.01c0.006-0.048,0.027-0.089,0.027-0.137v-4.188c0-0.552-0.447-1-1-1c-0.553,0-1,0.448-1,1
		v4.188c0,0.048,0.021,0.089,0.027,0.137H31.519c-1.146,0-2.08,0.933-2.08,2.079V71.56c0,0.021,0.008,0.039,0.009,0.061h-18.99
		L20.385,53.942z M44.501,58.91l12.707,12.71H31.792L44.501,58.91z M31.438,69.145V58.349c0-0.044,0.036-0.079,0.08-0.079h10.794
		L31.438,69.145z M46.686,58.269h10.797c0.044,0,0.079,0.035,0.079,0.079v10.797L46.686,58.269z"/>
</g>
</svg>
