<?xml version="1.0" encoding="utf-8"?>
<!-- Generator: Adobe Illustrator 16.0.0, SVG Export Plug-In . SVG Version: 6.00 Build 0)  -->
<!DOCTYPE svg PUBLIC "-//W3C//DTD SVG 1.1//EN" "http://www.w3.org/Graphics/SVG/1.1/DTD/svg11.dtd">
<svg version="1.1" id="Layer_1" xmlns="http://www.w3.org/2000/svg" xmlns:xlink="http://www.w3.org/1999/xlink" x="0px" y="0px"
	 width="511.992px" height="437.173px" viewBox="0 0 511.992 437.173" enable-background="new 0 0 511.992 437.173"
	 xml:space="preserve">
<g>
	<defs>
		<rect id="SVGID_1_" width="511.992" height="437.173"/>
	</defs>
	<clipPath id="SVGID_2_">
		<use xlink:href="#SVGID_1_"  overflow="visible"/>
	</clipPath>
	<path clip-path="url(#SVGID_2_)" fill="#FFFFFF" d="M346.743,92.991c5.688,1.5,11.531-1.906,13.031-7.602
		c1.5-5.695-1.906-11.531-7.595-13.031c-5.703-1.492-11.53,1.906-13.03,7.602C337.649,85.663,341.056,91.491,346.743,92.991"/>
	<path clip-path="url(#SVGID_2_)" fill="#FFFFFF" d="M368.243,129.85c5.688,1.492,11.531-1.906,13.031-7.609
		c1.5-5.695-1.906-11.531-7.595-13.023c-5.703-1.5-11.53,1.898-13.03,7.601C359.149,122.514,362.556,128.35,368.243,129.85"/>
	<path clip-path="url(#SVGID_2_)" fill="#FFFFFF" d="M395.181,146.068c-5.703-1.5-11.53,1.906-13.03,7.602
		c-1.5,5.696,1.905,11.531,7.594,13.031c5.688,1.5,11.531-1.906,13.031-7.602C404.274,153.397,400.868,147.568,395.181,146.068"/>
	<path clip-path="url(#SVGID_2_)" fill="#FFFFFF" d="M436.772,168.857c2,3.398,5.562,5.289,9.233,5.289
		c1.828,0,3.672-0.469,5.359-1.453c5.094-2.969,6.812-9.5,3.844-14.585l-54.311-93.092c-2.97-5.086-9.5-6.805-14.595-3.836
		c-5.094,2.969-6.812,9.5-3.844,14.586L436.772,168.857z"/>
	<path clip-path="url(#SVGID_2_)" fill="#FFFFFF" d="M496.257,206.966c15.125-8.937,20.234-28.492,11.359-43.679l-86-147.412
		C415.913,6.078,405.305,0,393.962,0c-5.641,0-11.203,1.508-16.094,4.359L38.233,202.505h-6.234c-17.647,0-31.999,14.359-31.999,32
		v170.668c0,17.641,14.352,32,31.999,32h61.054h0.008h386.931c17.656,0,32-14.359,32-32V234.505
		C511.991,222.794,505.663,212.544,496.257,206.966 M388.618,22.789c1.656-0.969,3.453-1.46,5.344-1.46
		c3.797,0,7.344,2.031,9.25,5.296l85.998,147.412c2.953,5.078,1.234,11.625-3.844,14.586l-23.797,13.882h-42.345
		c2.406-1.367,4.298-3.664,5.048-6.554c1.5-5.695-1.906-11.531-7.595-13.031c-5.701-1.5-11.528,1.906-13.028,7.602
		c-1.267,4.789,0.938,9.656,5.062,11.984H292.245l48.779-28.46c5.077-2.969,6.797-9.5,3.827-14.585
		c-2.969-5.094-9.5-6.812-14.577-3.844l-80.374,46.89h-42.336l111.958-65.311c5.077-2.969,6.797-9.5,3.827-14.586
		c-2.969-5.094-9.5-6.812-14.577-3.844l-128.99,75.257c-3.171,1.844-5.03,5.078-5.265,8.484h-93.95L388.618,22.789z
		 M490.647,405.173c0,5.875-4.781,10.656-10.656,10.656H31.998c-5.882,0-10.663-4.781-10.663-10.656V234.505
		c0-5.883,4.781-10.664,10.663-10.664h447.993c5.875,0,10.656,4.781,10.656,10.664V405.173z"/>
	<path clip-path="url(#SVGID_2_)" fill="#FFFFFF" d="M408.462,248.302c-4.188,4.156-4.188,10.904,0,15.076
		c4.154,4.172,10.904,4.172,15.062,0c4.188-4.172,4.188-10.92,0-15.076C419.366,244.13,412.616,244.13,408.462,248.302"/>
	<path clip-path="url(#SVGID_2_)" fill="#FFFFFF" d="M408.462,290.956c-4.188,4.172-4.188,10.922,0,15.094
		c4.154,4.156,10.904,4.156,15.062,0c4.188-4.172,4.188-10.922,0-15.094C419.366,286.8,412.616,286.8,408.462,290.956"/>
	<path clip-path="url(#SVGID_2_)" fill="#FFFFFF" d="M408.462,333.628c-4.188,4.172-4.188,10.922,0,15.078
		c4.154,4.172,10.904,4.172,15.062,0c4.188-4.156,4.188-10.906,0-15.078C419.366,329.456,412.616,329.456,408.462,333.628"/>
	<path clip-path="url(#SVGID_2_)" fill="#FFFFFF" d="M408.462,376.298c-4.188,4.156-4.188,10.906,0,15.078
		c4.154,4.172,10.904,4.172,15.062,0c4.188-4.172,4.188-10.922,0-15.078C419.366,372.128,412.616,372.128,408.462,376.298"/>
	<path clip-path="url(#SVGID_2_)" fill="#FFFFFF" d="M151.918,262.612l-26.132,26.141L55.959,274.8
		c-5.773-1.156-11.398,2.578-12.555,8.359c-1.148,5.766,2.594,11.391,8.367,12.547l55.882,11.188l-28.038,28.031H53.866
		c-5.891,0-10.664,4.781-10.664,10.656c0,5.906,4.773,10.672,10.664,10.672h19.507v19.514c0,5.875,4.773,10.656,10.664,10.656
		s10.664-4.781,10.664-10.656v-25.764l28.039-28.031l11.18,55.873c1.008,5.078,5.469,8.578,10.445,8.578
		c0.695,0,1.398-0.062,2.102-0.203c5.78-1.156,9.522-6.781,8.366-12.545l-13.96-69.844l26.132-26.125
		c4.164-4.156,4.164-10.922,0-15.094C162.84,258.456,156.082,258.456,151.918,262.612"/>
	<path clip-path="url(#SVGID_2_)" fill="#FFFFFF" d="M458.647,255.833c-5.875,0-10.656,4.779-10.656,10.67v107.781
		c0,5.889,4.781,10.67,10.656,10.67c5.905,0,10.688-4.781,10.688-10.67V266.503C469.335,260.612,464.554,255.833,458.647,255.833"/>
	<path clip-path="url(#SVGID_2_)" fill="#FFFFFF" d="M362.649,266.503H213.331c-5.891,0-10.672,4.766-10.672,10.672
		c0,5.875,4.781,10.656,10.672,10.656h149.318c5.905,0,10.688-4.781,10.688-10.656C373.337,271.269,368.556,266.503,362.649,266.503
		"/>
	<path clip-path="url(#SVGID_2_)" fill="#FFFFFF" d="M362.649,309.175H213.331c-5.891,0-10.672,4.781-10.672,10.656
		c0,5.906,4.781,10.672,10.672,10.672h149.318c5.905,0,10.688-4.766,10.688-10.672C373.337,313.956,368.556,309.175,362.649,309.175
		"/>
	<path clip-path="url(#SVGID_2_)" fill="#FFFFFF" d="M298.649,351.831h-85.318c-5.891,0-10.672,4.781-10.672,10.672
		s4.781,10.672,10.672,10.672h85.318c5.905,0,10.688-4.781,10.688-10.672S304.556,351.831,298.649,351.831"/>
</g>
</svg>
